REM DIRINDEX 1\2\6,1\2\7,1\2\8,1\2\9,1\3\10,1\3\11,1\4\12,1\4\13,1\4\14,1\5\15,1\5\16,1\5\17
REM DIRNAME folder01,folder02,folder03,folder04,folder05,folder06,folder07,folder08,folder09,folder10,folder11,folder12,folder13,folder14,folder15,folder16,folder17
TITLE ""
FILE "1400_3_sec04_0350_0367.mp3" MP3
  TRACK 01 AUDIO
    TITLE "0:"
    INDEX 01 00:00:00
  TRACK 02 AUDIO
    TITLE "17:cjc029_5129"
    INDEX 01 00:00:15
  TRACK 03 AUDIO
    TITLE "0:"
    INDEX 01 00:01:30
  TRACK 04 AUDIO
    TITLE "16:cjc029_5130"
    INDEX 01 00:01:36
  TRACK 05 AUDIO
    TITLE "0:"
    INDEX 01 00:02:40
  TRACK 06 AUDIO
    TITLE "17:cjc029_5131"
    INDEX 01 00:03:23
  TRACK 07 AUDIO
    TITLE "0:"
    INDEX 01 00:04:25
  TRACK 08 AUDIO
    TITLE "16:cjc029_5132"
    INDEX 01 00:04:33
  TRACK 09 AUDIO
    TITLE "0:"
    INDEX 01 00:05:67
  TRACK 10 AUDIO
    TITLE "17:cjc029_5133"
    INDEX 01 00:06:51
  TRACK 11 AUDIO
    TITLE "0:"
    INDEX 01 00:07:60
  TRACK 12 AUDIO
    TITLE "16:cjc029_5134"
    INDEX 01 00:07:74
  TRACK 13 AUDIO
    TITLE "0:"
    INDEX 01 00:09:16
  TRACK 14 AUDIO
    TITLE "17:cjc029_5135"
    INDEX 01 00:10:02
  TRACK 15 AUDIO
    TITLE "0:"
    INDEX 01 00:11:09
  TRACK 16 AUDIO
    TITLE "16:cjc029_5136"
    INDEX 01 00:11:19
  TRACK 17 AUDIO
    TITLE "0:"
    INDEX 01 00:12:36
  TRACK 18 AUDIO
    TITLE "17:cjc029_5137"
    INDEX 01 00:13:20
  TRACK 19 AUDIO
    TITLE "0:"
    INDEX 01 00:16:46
  TRACK 20 AUDIO
    TITLE "16:cjc029_5138"
    INDEX 01 00:16:51
  TRACK 21 AUDIO
    TITLE "0:"
    INDEX 01 00:18:07
  TRACK 22 AUDIO
    TITLE "17:cjc029_5139"
    INDEX 01 00:18:66
  TRACK 23 AUDIO
    TITLE "0:"
    INDEX 01 00:19:67
  TRACK 24 AUDIO
    TITLE "16:cjc029_5140"
    INDEX 01 00:19:73
  TRACK 25 AUDIO
    TITLE "0:"
    INDEX 01 00:21:11
  TRACK 26 AUDIO
    TITLE "17:cjc029_5141"
    INDEX 01 00:21:72
  TRACK 27 AUDIO
    TITLE "0:"
    INDEX 01 00:23:16
  TRACK 28 AUDIO
    TITLE "16:cjc029_5142"
    INDEX 01 00:23:18
  TRACK 29 AUDIO
    TITLE "0:"
    INDEX 01 00:24:51
  TRACK 30 AUDIO
    TITLE "17:cjc029_5143"
    INDEX 01 00:25:37
  TRACK 31 AUDIO
    TITLE "0:"
    INDEX 01 00:27:45
  TRACK 32 AUDIO
    TITLE "16:cjc029_5144"
    INDEX 01 00:27:51
  TRACK 33 AUDIO
    TITLE "0:"
    INDEX 01 00:29:01
  TRACK 34 AUDIO
    TITLE "17:cjc029_5145"
    INDEX 01 00:29:60
  TRACK 35 AUDIO
    TITLE "0:"
    INDEX 01 00:30:69
  TRACK 36 AUDIO
    TITLE "16:cjc029_5146"
    INDEX 01 00:31:00
  TRACK 37 AUDIO
    TITLE "0:"
    INDEX 01 00:32:21
  TRACK 38 AUDIO
    TITLE "17:cjc029_5147"
    INDEX 01 00:33:05
  TRACK 39 AUDIO
    TITLE "0:"
    INDEX 01 00:34:22
  TRACK 40 AUDIO
    TITLE "16:cjc029_5148"
    INDEX 01 00:34:30
  TRACK 41 AUDIO
    TITLE "0:"
    INDEX 01 00:35:61
  TRACK 42 AUDIO
    TITLE "17:cjc029_5149"
    INDEX 01 00:36:48
  TRACK 43 AUDIO
    TITLE "0:"
    INDEX 01 00:37:63
  TRACK 44 AUDIO
    TITLE "16:cjc029_5150"
    INDEX 01 00:37:69
  TRACK 45 AUDIO
    TITLE "0:"
    INDEX 01 00:39:03
  TRACK 46 AUDIO
    TITLE "17:cjc029_5151"
    INDEX 01 00:39:68
  TRACK 47 AUDIO
    TITLE "0:"
    INDEX 01 00:41:00
  TRACK 48 AUDIO
    TITLE "16:cjc029_5152"
    INDEX 01 00:41:06
  TRACK 49 AUDIO
    TITLE "0:"
    INDEX 01 00:42:33
  TRACK 50 AUDIO
    TITLE "17:cjc029_5153"
    INDEX 01 00:43:21
  TRACK 51 AUDIO
    TITLE "0:"
    INDEX 01 00:44:42
  TRACK 52 AUDIO
    TITLE "16:cjc029_5154"
    INDEX 01 00:44:46
  TRACK 53 AUDIO
    TITLE "0:"
    INDEX 01 00:45:33
  TRACK 54 AUDIO
    TITLE "17:cjc029_5155"
    INDEX 01 00:46:31
  TRACK 55 AUDIO
    TITLE "0:"
    INDEX 01 00:48:55
  TRACK 56 AUDIO
    TITLE "16:cjc029_5156"
    INDEX 01 00:48:59
  TRACK 57 AUDIO
    TITLE "0:"
    INDEX 01 00:49:63
  TRACK 58 AUDIO
    TITLE "17:cjc029_5157"
    INDEX 01 00:50:48
  TRACK 59 AUDIO
    TITLE "0:"
    INDEX 01 00:51:52
  TRACK 60 AUDIO
    TITLE "16:cjc029_5158"
    INDEX 01 00:51:63
  TRACK 61 AUDIO
    TITLE "0:"
    INDEX 01 00:52:69
  TRACK 62 AUDIO
    TITLE "17:cjc029_5159"
    INDEX 01 00:53:55
  TRACK 63 AUDIO
    TITLE "0:"
    INDEX 01 00:54:74
  TRACK 64 AUDIO
    TITLE "16:cjc029_5160"
    INDEX 01 00:55:06
  TRACK 65 AUDIO
    TITLE "0:"
    INDEX 01 00:56:27
  TRACK 66 AUDIO
    TITLE "17:cjc029_5161"
    INDEX 01 00:57:09
  TRACK 67 AUDIO
    TITLE "0:"
    INDEX 01 00:59:34
  TRACK 68 AUDIO
    TITLE "16:cjc029_5162"
    INDEX 01 00:59:39
  TRACK 69 AUDIO
    TITLE "0:"
    INDEX 01 01:00:55
  TRACK 70 AUDIO
    TITLE "17:cjc029_5163"
    INDEX 01 01:01:38
  TRACK 71 AUDIO
    TITLE "0:"
    INDEX 01 01:02:46
  TRACK 72 AUDIO
    TITLE "16:cjc029_5164"
    INDEX 01 01:02:48
  TRACK 73 AUDIO
    TITLE "0:"
    INDEX 01 01:03:63
